<?xml version="1.0" encoding="UTF-8"?>
<svg id="Capa_2" data-name="Capa 2" xmlns="http://www.w3.org/2000/svg" viewBox="0 0 51.69 51.7">
  <defs>
    <style>
      .cls-1 {
        fill: #ff2e57;
      }
    </style>
  </defs>
  <g id="TEXTO">
    <g>
      <path class="cls-1" d="M29.08,51.7h-6.46c-.6-.03-1.07-.47-1.07-1.08v-5.39s-20.45,0-20.45,0c-.62,0-1.09-.46-1.09-1.1V1.1C0,.47.46,0,1.1,0h49.5c.63,0,1.1.47,1.1,1.1v43.04c0,.63-.47,1.1-1.09,1.1h-20.45s0,5.39,0,5.39c0,.61-.47,1.05-1.07,1.08ZM49.54,43.07V2.16s-47.38,0-47.38,0v40.91s47.38,0,47.38,0ZM28,49.53v-4.3s-4.31,0-4.31,0v4.31s4.31-.01,4.31-.01Z"/>
      <path class="cls-1" d="M16.2,15.08H5.39c-.6,0-1.08-.48-1.08-1.08V5.38c0-.6.47-1.07,1.08-1.07h10.76c.6,0,1.08.48,1.08,1.07v8.61c0,.58-.41,1.01-1.02,1.08ZM15.08,12.92v-6.46s-8.62,0-8.62,0v6.47s8.62,0,8.62,0Z"/>
      <path class="cls-1" d="M31.28,15.08h-10.82c-.6,0-1.08-.48-1.08-1.08V5.38c0-.6.47-1.07,1.08-1.07h10.76c.6,0,1.08.48,1.08,1.07v8.61c0,.58-.41,1.01-1.02,1.08ZM30.16,12.92v-6.46s-8.62,0-8.62,0v6.47s8.62,0,8.62,0Z"/>
      <path class="cls-1" d="M46.36,15.08h-10.82c-.6,0-1.08-.48-1.08-1.08V5.38c0-.6.47-1.07,1.08-1.07h10.76c.6,0,1.08.48,1.08,1.07v8.61c0,.58-.41,1.01-1.02,1.08ZM45.24,12.92v-6.46s-8.62,0-8.62,0v6.47s8.62,0,8.62,0Z"/>
      <path class="cls-1" d="M16.2,28H5.39c-.6,0-1.08-.48-1.08-1.08v-8.61c0-.6.47-1.07,1.08-1.07h10.76c.6,0,1.08.48,1.08,1.07v8.61c0,.58-.41,1.01-1.02,1.08ZM15.08,25.84v-6.46s-8.62,0-8.62,0v6.47s8.62,0,8.62,0Z"/>
      <path class="cls-1" d="M31.28,28h-10.82c-.6,0-1.08-.48-1.08-1.08v-8.61c0-.6.47-1.07,1.08-1.07h10.76c.6,0,1.08.48,1.08,1.07v8.61c0,.58-.41,1.01-1.02,1.08ZM30.16,25.84v-6.46s-8.62,0-8.62,0v6.47s8.62,0,8.62,0Z"/>
      <path class="cls-1" d="M46.36,28h-10.82c-.6,0-1.08-.48-1.08-1.08v-8.61c0-.6.47-1.07,1.08-1.07h10.76c.6,0,1.08.48,1.08,1.07v8.61c0,.58-.41,1.01-1.02,1.08ZM45.24,25.84v-6.46s-8.62,0-8.62,0v6.47s8.62,0,8.62,0Z"/>
      <path class="cls-1" d="M16.2,40.93H5.39c-.6,0-1.08-.48-1.08-1.08v-8.61c0-.6.47-1.07,1.08-1.07h10.76c.6,0,1.08.48,1.08,1.07v8.61c0,.58-.41,1.01-1.02,1.08ZM15.08,38.77v-6.46s-8.62,0-8.62,0v6.47s8.62,0,8.62,0Z"/>
      <path class="cls-1" d="M31.28,40.93h-10.82c-.6,0-1.08-.48-1.08-1.08v-8.61c0-.6.47-1.07,1.08-1.07h10.76c.6,0,1.08.48,1.08,1.07v8.61c0,.58-.41,1.01-1.02,1.08ZM30.16,38.77v-6.46s-8.62,0-8.62,0v6.47s8.62,0,8.62,0Z"/>
      <path class="cls-1" d="M46.36,40.93h-10.82c-.6,0-1.08-.48-1.08-1.08v-8.61c0-.6.47-1.07,1.08-1.07h10.76c.6,0,1.08.48,1.08,1.07v8.61c0,.58-.41,1.01-1.02,1.08ZM45.24,38.77v-6.46s-8.62,0-8.62,0v6.47s8.62,0,8.62,0Z"/>
    </g>
  </g>
</svg>