<?xml version="1.0" encoding="UTF-8"?>
<svg id="Capa_2" data-name="Capa 2" xmlns="http://www.w3.org/2000/svg" viewBox="0 0 41.81 50.94">
  <defs>
    <style>
      .cls-1 {
        fill: #ff2e57;
      }
    </style>
  </defs>
  <g id="TEXTO">
    <g>
      <path class="cls-1" d="M28.76,0c.55.18,1,.41,1.48.82l8.17,7.13c.9.78,1.09,2.03.61,3.04-.49,1.02-1.56,1.58-2.77,1.46v22s4.59,3.98,4.59,3.98c.93.81,1.23,2.03.73,3.13-.47,1.02-1.55,1.62-2.77,1.48v1.91c-.01.48-.33.81-.74.81-.45,0-.77-.33-.77-.82v-2.59c0-.43.29-.78.73-.79h1.19c.51,0,.9-.33,1.03-.71.16-.47.07-.9-.31-1.23l-8.34-7.25c-.45-.39-1.05-.39-1.51,0l-8.33,7.25c-.4.35-.5.83-.29,1.31.15.36.53.63,1.02.63h1.1c.46,0,.79.33.79.79v4.08c0,1.63,1.23,2.97,2.88,2.97h7.06c1.21,0,2.23-.67,2.73-1.75.18-.39.64-.54,1.02-.34,1.26.67-.99,3.48-3.27,3.54-2.66.07-5.26.11-7.92,0-2.33-.1-4-2.19-4-4.4v-3.42c-1.18.15-2.25-.42-2.74-1.38-.53-1.05-.32-2.28.53-3.08l2.12-1.88c-1.4-.08-2.64-.31-3.89-.83v10.68c-.01,2.19-1.73,4.22-4,4.31-2.66.1-5.26.12-7.91,0-2.33-.11-3.98-2.17-3.98-4.41v-19.07c-1.24.14-2.32-.47-2.78-1.49-.48-1.05-.24-2.27.65-3.03l2.68-2.31c.31-.27.79-.08.98.16.24.32.21.76-.1,1.03l-2.55,2.22c-.39.34-.49.82-.3,1.28.57,1.4,2.93-.11,2.93,1.43v19.77c0,1.7,1.27,2.99,2.96,2.99h7.06c1.66-.05,2.89-1.33,2.89-2.99v-11.33c-5.53-3.38-6.87-10.8-2.82-15.9l-2.91-2.54c-.44-.36-1.02-.36-1.45.01l-3.57,3.09c-.32.28-.77.17-.99-.06-.27-.29-.3-.77,0-1.04l3.54-3.1c1.01-.88,2.45-.88,3.47,0l2.93,2.54c1.37-1.29,2.95-2.13,4.73-2.62v-3.03c-1.2.11-2.28-.43-2.77-1.47s-.31-2.23.58-3L26.87.42c.29-.25.67-.19.9-.42h.99ZM32.44,31.14l2.31,1.97V11.85c0-.51.27-.87.78-.88h1.09c.55,0,.95-.29,1.11-.77.14-.43,0-.86-.38-1.2L29.06,1.79c-.46-.4-1.06-.4-1.52,0l-8.28,7.2c-.42.37-.54.83-.35,1.3.17.43.58.68,1.09.68h1.08c.45,0,.77.33.77.78l.02,3.48c4.01-.44,7.82,1.42,9.99,4.58,2.35,3.4,2.53,7.7.57,11.34ZM29.09,31.27c.55-.48,1.2-.66,1.93-.69,2.24-3.82,1.43-8.69-1.88-11.61-3.23-2.85-8.05-3.12-11.59-.53-3.49,2.55-4.81,7.23-3,11.27,1.73,3.86,5.96,6.16,10.23,5.31l4.3-3.75Z"/>
      <path class="cls-1" d="M22.22,31.28c.02-.82-.19-.11-1.78-1.07-.41-.24-.58-.69-.32-1.1.21-.35.72-.45,1.1-.17.47.35,1,.43,1.58.44.85.02,1.55-.47,1.72-1.31.14-.67-.22-1.26-.86-1.48-1.66-.58-3.68-1.28-3.39-3.36.15-1.06.85-1.88,1.87-2.2.1-.04.09-.34.08-.45-.01-.42.32-.8.73-.8.44,0,.77.33.76.82-.02.72.49.2,1.44,1.03.31.27.34.71.09,1.03-.2.26-.64.38-.98.14-.84-.6-2.09-.54-2.41.28-.12.31-.21.79.11,1.05.64.51,1.43.77,2.2,1.04,1.35.49,2.12,1.75,1.83,3.17-.24,1.18-1.08,2.08-2.23,2.42-.08.5.05,1.24-.72,1.31-.4.04-.82-.26-.81-.8Z"/>
    </g>
  </g>
</svg>