<?xml version="1.0" encoding="UTF-8"?>
<svg id="Capa_2" data-name="Capa 2" xmlns="http://www.w3.org/2000/svg" viewBox="0 0 51.33 45.31">
  <defs>
    <style>
      .cls-1 {
        fill: #ff2e57;
      }
    </style>
  </defs>
  <g id="TEXTO">
    <path class="cls-1" d="M0,37.99V3.21C0,1.37,2.16,0,3.8,0h43.71c1.87,0,3.77,1.44,3.78,3.44l.05,34.23c0,.49-.4.76-.8.76h-2.92c-.24,0-.44-.08-.61-.25l-5.75-5.75c-.69-.02-1.32-.05-1.98.02-.43,7.29-6.49,12.89-13.65,12.86-7.17-.03-13.16-5.65-13.57-12.89l-1.97.02-5.75,5.74c-.14.14-.31.24-.51.24H.7c-.33,0-.49-.28-.7-.43ZM47.53,3.01c.55,0,.79.38.79.82v33.06c.49.09.9.03,1.5.03V3.73c0-1.3-1.06-2.22-2.32-2.22H3.83c-1.34,0-2.32.99-2.32,2.32v33.06c.52.07.99.07,1.5,0V3.83c0-.51.31-.82.83-.82h43.7ZM9.02,22.26c0-.47.35-.78.75-.78s.75.31.75.78v8.63c.52.05.98.04,1.53,0,.43-7.27,6.48-12.87,13.66-12.85,7.13.02,13.13,5.61,13.56,12.85.54.03,1.01.06,1.53,0V9.84c0-2.12.9-3.99,2.52-5.33H8.01c1.58,1.3,2.51,3.14,2.51,5.22v9.51c-.05.48-.41.76-.84.72-.38-.04-.66-.36-.66-.81v-9.32c0-2.64-1.88-4.87-4.51-5.25v31.27s4.51-4.48,4.51-4.48v-9.11ZM46.81,35.82V4.58c-2.51.37-4.36,2.42-4.5,4.96v21.84s4.5,4.45,4.5,4.45ZM25.67,21.95l2.77-2.06c-1.89-.44-3.68-.45-5.57,0l2.8,2.06ZM20.04,29.04l4.86-3.54v-2.25s-3.84-2.78-3.84-2.78c-1.82.75-3.38,1.89-4.64,3.38l1.48,4.52,2.14.67ZM31.33,29.06l2.11-.72,1.46-4.5c-1.26-1.49-2.81-2.63-4.63-3.38l-3.84,2.79v2.25s4.91,3.56,4.91,3.56ZM16.41,28.65l-1.1-3.3c-.98,1.69-1.6,3.44-1.71,5.34l2.81-2.04ZM37.74,30.68c-.14-1.98-.78-3.72-1.73-5.33l-1.08,3.34,2.81,2ZM28.54,35.59l1.75-5.42-4.62-3.36-4.63,3.36,1.76,5.43,5.74-.02ZM20.12,38.04l1.3-1.82-1.87-5.74-2.12-.69-3.85,2.8c.15,1.97.75,3.8,1.78,5.45h4.76ZM31.24,38.05l4.75-.02c1.03-1.69,1.62-3.51,1.76-5.44l-3.85-2.79-2.14.72-1.85,5.73,1.33,1.81ZM28.54,43.45l1.45-4.53-1.33-1.8h-6.01s-1.33,1.81-1.33,1.81l1.47,4.53c1.91.46,3.83.47,5.74,0ZM19.94,39.55l-3.45.04c1.24,1.43,2.7,2.52,4.48,3.25l-1.03-3.3ZM34.81,39.59l-3.44-.03-1.02,3.29c1.78-.75,3.26-1.82,4.46-3.25Z"/>
  </g>
</svg>