<?xml version="1.0" encoding="UTF-8"?>
<svg id="Capa_2" data-name="Capa 2" xmlns="http://www.w3.org/2000/svg" viewBox="0 0 50.79 43.65">
  <defs>
    <style>
      .cls-1 {
        fill: #ff2e57;
      }
    </style>
  </defs>
  <g id="TEXTO">
    <g>
      <path class="cls-1" d="M50.79,7.05v19.92c-.26.65-.68,1.23-1.27,1.42-.78.26-1.53.13-2.09-.43l-10.75-10.74c-.78-.78-2.01-.76-2.79.02l-10.52,10.52,3.38,3.39,3.4-3.37c2.37-2.35,6.12-2.26,8.47.09l4.41,4.41c.81.81.84,2.04.07,2.83s-2.05.81-2.88-.02l-4.46-4.46c-.77-.77-2.01-.82-2.8-.04l-4.76,4.75c-.79.79-2.03.83-2.84.02l-9.76-9.76c-.84-.84-2.07-.84-2.92,0l-8.71,8.71v1.32c-.01,2.22,1.71,4.06,3.98,4.06h34.89c2.23,0,3.95-1.78,3.98-3.96.01-1.08.82-1.89,1.83-1.98s1.83.61,2.14,1.58v1.29c-.6,3.96-3.78,7.03-7.86,7.03H7.75c-4.03-.01-7.23-3.16-7.75-7.1V7.12C.52,3.17,3.72.03,7.75.03L42.73,0c4.19,0,7.46,3.02,8.06,7.05ZM31.15,14.36c2.37-2.26,6.04-2.23,8.32.05l7.34,7.31V7.96c0-2.23-1.76-3.95-3.97-3.98H7.94c-2.21,0-3.98,1.76-3.98,3.98v20.71s6.01-5.97,6.01-5.97c2.3-2.28,5.99-2.25,8.31,0l2.29,2.25,10.57-10.58Z"/>
      <path class="cls-1" d="M15.76,9.19c1.69-.29,3.16.86,3.43,2.43.28,1.62-.82,3.16-2.43,3.43s-3.11-.77-3.42-2.35c-.31-1.59.7-3.21,2.42-3.5Z"/>
    </g>
  </g>
</svg>